<?xml version="1.0" encoding="utf-8"?><!-- Generator: Adobe Illustrator 26.3.1, SVG Export Plug-In . SVG Version: 6.00 Build 0)  -->
<svg style="enable-background:new 0 0 24 24;" id="_x31_" version="1.1" viewBox="0 0 24 24" x="0px"
	xmlns="http://www.w3.org/2000/svg" y="0px" xml:space="preserve">
<style type="text/css">
	.st0{fill:none;}
	.st1{fill:#FFFFFF;}
</style>
	<path class="st0" d="M0,0h24v24H0V0z" />
	<path class="st1" d="M16.7,12.2H13v1.9h3.7c1.5,0,2.8,1.3,2.8,2.8s-1.3,2.8-2.8,2.8H13v1.9h3.7c2.6,0,4.6-2.1,4.6-4.6
	S19.3,12.2,16.7,12.2z M11,19.8H7.3c-1.5,0-2.8-1.3-2.8-2.8s1.3-2.8,2.8-2.8H11v-1.9H7.3c-2.6,0-4.6,2.1-4.6,4.6s2.1,4.6,4.6,4.6H11
	C11,21.4,11,19.8,11,19.8z M8.2,16h7.5v2H8.2V16z" />
	<path class="st0" d="M2.9,3.3h18v18h-18C2.9,21.3,2.9,3.3,2.9,3.3z" />
	<path class="st0" d="M2,1.6h20v20H2V1.6z" />
	<path class="st1" d="M10,11.9c0-1,0.9-1.9,1.9-1.9s1.9,0.9,1.9,1.9c0,0.4-0.1,0.6-0.3,0.9c0.6,0,1.4,0,2.1,0
	c0.1-0.3,0.1-0.6,0.1-0.9C15.7,9.8,14,8,11.8,8s-3.9,1.7-3.9,3.9c0,0.4,0,0.6,0.1,0.9c0.6,0,1.4,0,2.1,0C10.1,12.6,10,12.3,10,11.9z
	" />
	<path class="st1" d="M6.8,12.7c0-0.3,0-0.5,0-0.8s0-0.4,0-0.6l0.1-1L6,9.6L5,8.7l0.6-1.2L6.8,8l1,0.4l0.9-0.6
	c0.4-0.3,0.8-0.5,1.2-0.6l1-0.4l0.1-1l0.1-1.3h1.3l0.1,1.3l0.1,1l1,0.4c0.4,0.1,0.8,0.4,1.2,0.6l0.9,0.6l1-0.4L18,7.5l0.6,1.2
	l-1,0.8l-0.5,0.6l0.1,1c0,0.3,0,0.5,0,0.6s0,0.4,0,0.6v0.3c0.6,0,1.3,0,1.9,0l0,0c0-0.3,0.1-0.6,0.1-0.9c0-0.4,0-0.6-0.1-0.9
	l2.1-1.5c0.1-0.1,0.3-0.4,0.1-0.6l-1.9-3.3c-0.3,0-0.4-0.1-0.5-0.1h-0.1l-2.4,0.9c-0.5-0.3-1-0.6-1.7-0.9l-0.4-2.6
	c0-0.3-0.3-0.4-0.5-0.4H9.9c-0.3,0-0.4,0.1-0.5,0.4L9.2,5.2C8.6,5.5,8,5.8,7.5,6.2l-2.3-1H5.1c-0.3,0-0.4,0.1-0.5,0.3L2.7,8.8
	C2.5,9.1,2.5,9.3,2.8,9.5L4.9,11c0,0.3-0.1,0.6-0.1,0.9s0,0.6,0.1,0.9l0,0C5.5,12.8,6.2,12.8,6.8,12.7L6.8,12.7z" />
</svg>
