<?xml version="1.0" encoding="utf-8"?><!-- Generator: Adobe Illustrator 25.0.1, SVG Export Plug-In . SVG Version: 6.00 Build 0)  -->
<svg style="enable-background:new 0 0 24 24;" id="1" version="1.1" viewBox="0 0 24 24" x="0px"
	xmlns="http://www.w3.org/2000/svg" y="0px" xml:space="preserve">
<style type="text/css">
	.st0{fill:none;}
	.st1{enable-background:new    ;}
</style>
	<path class="st0" d="M0,0h24v24H0V0z" />
	<path class="st1" d="M15.7,12.4h-2.9v1.5h2.9c1.2,0,2.2,1,2.2,2.2s-1,2.2-2.2,2.2h-2.9v1.5h2.9c2,0,3.6-1.6,3.6-3.6
	S17.7,12.4,15.7,12.4z M11.3,18.3H8.4c-1.2,0-2.2-1-2.2-2.2s1-2.2,2.2-2.2h2.9v-1.5H8.4c-2,0-3.6,1.6-3.6,3.6s1.6,3.6,3.6,3.6h2.9
	V18.3z M9.1,15.4h5.8v1.5H9.1V15.4z" />
	<path class="st0" d="M5,5.5h14v14H5V5.5z" />
	<path class="st0" d="M4.3,4.2h15.5v15.5H4.3V4.2z" />
	<path d="M10.5,12.2c0-0.8,0.7-1.5,1.5-1.5c0.8,0,1.5,0.7,1.5,1.5c0,0.3-0.1,0.5-0.2,0.7c0.5,0,1.1,0,1.6,0c0.1-0.2,0.1-0.5,0.1-0.7
	c0-1.6-1.3-3-3-3s-3,1.3-3,3c0,0.3,0,0.5,0.1,0.7c0.5,0,1.1,0,1.6,0C10.6,12.7,10.5,12.5,10.5,12.2z" />
	<path d="M8,12.8c0-0.2,0-0.4,0-0.6s0-0.3,0-0.5l0.1-0.8l-0.7-0.5L6.6,9.7l0.5-0.9l0.9,0.4l0.8,0.3L9.5,9c0.3-0.2,0.6-0.4,0.9-0.5
	l0.8-0.3l0.1-0.8l0.1-1h1l0.1,1l0.1,0.8l0.8,0.3c0.3,0.1,0.6,0.3,0.9,0.5l0.7,0.5l0.8-0.3l0.9-0.4l0.5,0.9l-0.8,0.6L16,10.8l0.1,0.8
	c0,0.2,0,0.4,0,0.5s0,0.3,0,0.5l0,0.2c0.5,0,1,0,1.5,0l0,0c0-0.2,0.1-0.5,0.1-0.7c0-0.3,0-0.5-0.1-0.7l1.6-1.2
	c0.1-0.1,0.2-0.3,0.1-0.5l-1.5-2.6C17.6,7.1,17.5,7,17.4,7c0,0-0.1,0-0.1,0l-1.9,0.7C15,7.5,14.6,7.2,14.1,7l-0.3-2
	c0-0.2-0.2-0.3-0.4-0.3h-3c-0.2,0-0.3,0.1-0.4,0.3L9.9,7C9.4,7.2,9,7.5,8.6,7.8L6.8,7c0,0-0.1,0-0.1,0C6.5,7,6.4,7.1,6.3,7.2
	L4.8,9.8c-0.1,0.2-0.1,0.4,0.1,0.5l1.6,1.2c0,0.2-0.1,0.5-0.1,0.7c0,0.2,0,0.5,0.1,0.7l0,0c0.5,0,1,0,1.5,0L8,12.8z" />
</svg>
